<?xml version="1.0" encoding="UTF-8" standalone="no"?>
<!DOCTYPE svg PUBLIC "-//W3C//DTD SVG 1.1//EN"
 "http://www.w3.org/Graphics/SVG/1.1/DTD/svg11.dtd">
<!-- Generated by graphviz version 9.0.0 (20230911.1827)
 -->
<!-- Pages: 1 -->
<svg width="328pt" height="332pt"
 viewBox="0.00 0.00 327.72 332.00" xmlns="http://www.w3.org/2000/svg" xmlns:xlink="http://www.w3.org/1999/xlink">
<g id="graph0" class="graph" transform="scale(1 1) rotate(0) translate(4 328)">
<polygon fill="white" stroke="none" points="-4,4 -4,-328 323.72,-328 323.72,4 -4,4"/>
<!-- all -->
<g id="node1" class="node">
<title>all</title>
<ellipse fill="none" stroke="black" cx="198.08" cy="-18" rx="27" ry="18"/>
<text text-anchor="middle" x="198.08" y="-12.95" font-family="Times,serif" font-size="14.00">all</text>
</g>
<!-- render&#45;steps -->
<g id="node2" class="node">
<title>render&#45;steps</title>
<ellipse fill="none" stroke="black" cx="61.08" cy="-90" rx="55.96" ry="18"/>
<text text-anchor="middle" x="61.08" y="-84.95" font-family="Times,serif" font-size="14.00">render&#45;steps</text>
</g>
<!-- render&#45;steps&#45;&gt;all -->
<g id="edge1" class="edge">
<title>render&#45;steps&#45;&gt;all</title>
<path fill="none" stroke="black" d="M90.13,-74.15C112.74,-62.6 144.06,-46.6 167.14,-34.81"/>
<polygon fill="black" stroke="black" points="168.44,-38.07 175.75,-30.41 165.26,-31.84 168.44,-38.07"/>
</g>
<!-- generate&#45;html -->
<g id="node3" class="node">
<title>generate&#45;html</title>
<ellipse fill="none" stroke="black" cx="198.08" cy="-90" rx="62.61" ry="18"/>
<text text-anchor="middle" x="198.08" y="-84.95" font-family="Times,serif" font-size="14.00">generate&#45;html</text>
</g>
<!-- generate&#45;html&#45;&gt;all -->
<g id="edge2" class="edge">
<title>generate&#45;html&#45;&gt;all</title>
<path fill="none" stroke="black" d="M198.08,-71.7C198.08,-64.41 198.08,-55.73 198.08,-47.54"/>
<polygon fill="black" stroke="black" points="201.58,-47.62 198.08,-37.62 194.58,-47.62 201.58,-47.62"/>
</g>
<!-- analyze&#45;objects -->
<g id="node4" class="node">
<title>analyze&#45;objects</title>
<ellipse fill="none" stroke="black" cx="246.08" cy="-234" rx="68.24" ry="18"/>
<text text-anchor="middle" x="246.08" y="-228.95" font-family="Times,serif" font-size="14.00">analyze&#45;objects</text>
</g>
<!-- analyze&#45;objects&#45;&gt;all -->
<g id="edge3" class="edge">
<title>analyze&#45;objects&#45;&gt;all</title>
<path fill="none" stroke="black" d="M277.38,-217.56C291.66,-208.71 307.13,-196.12 315.08,-180 322.15,-165.65 319.49,-159.38 315.08,-144 304.67,-107.73 295.73,-99.68 270.08,-72 257.68,-58.63 241.5,-46.36 227.62,-37.01"/>
<polygon fill="black" stroke="black" points="229.56,-34.1 219.27,-31.57 225.73,-39.96 229.56,-34.1"/>
</g>
<!-- annotate&#45;plan -->
<g id="node6" class="node">
<title>annotate&#45;plan</title>
<ellipse fill="none" stroke="black" cx="61.08" cy="-162" rx="61.08" ry="18"/>
<text text-anchor="middle" x="61.08" y="-156.95" font-family="Times,serif" font-size="14.00">annotate&#45;plan</text>
</g>
<!-- analyze&#45;objects&#45;&gt;annotate&#45;plan -->
<g id="edge9" class="edge">
<title>analyze&#45;objects&#45;&gt;annotate&#45;plan</title>
<path fill="none" stroke="black" d="M208.19,-218.67C179.26,-207.72 139.21,-192.56 108.21,-180.83"/>
<polygon fill="black" stroke="black" points="109.66,-177.64 99.06,-177.37 107.18,-184.19 109.66,-177.64"/>
</g>
<!-- render&#45;objects -->
<g id="node7" class="node">
<title>render&#45;objects</title>
<ellipse fill="none" stroke="black" cx="242.08" cy="-162" rx="63.63" ry="18"/>
<text text-anchor="middle" x="242.08" y="-156.95" font-family="Times,serif" font-size="14.00">render&#45;objects</text>
</g>
<!-- analyze&#45;objects&#45;&gt;render&#45;objects -->
<g id="edge10" class="edge">
<title>analyze&#45;objects&#45;&gt;render&#45;objects</title>
<path fill="none" stroke="black" d="M245.09,-215.7C244.67,-208.41 244.17,-199.73 243.71,-191.54"/>
<polygon fill="black" stroke="black" points="247.2,-191.4 243.14,-181.62 240.22,-191.8 247.2,-191.4"/>
</g>
<!-- params -->
<g id="node5" class="node">
<title>params</title>
<ellipse fill="none" stroke="black" cx="150.08" cy="-306" rx="38.04" ry="18"/>
<text text-anchor="middle" x="150.08" y="-300.95" font-family="Times,serif" font-size="14.00">params</text>
</g>
<!-- params&#45;&gt;generate&#45;html -->
<g id="edge4" class="edge">
<title>params&#45;&gt;generate&#45;html</title>
<path fill="none" stroke="black" d="M149.98,-287.63C150.28,-257.61 152.98,-194.41 169.08,-144 171.95,-135.01 176.38,-125.79 180.93,-117.61"/>
<polygon fill="black" stroke="black" points="183.82,-119.61 185.87,-109.21 177.78,-116.06 183.82,-119.61"/>
</g>
<!-- params&#45;&gt;analyze&#45;objects -->
<g id="edge11" class="edge">
<title>params&#45;&gt;analyze&#45;objects</title>
<path fill="none" stroke="black" d="M169.97,-290.5C182.76,-281.17 199.67,-268.84 214.3,-258.17"/>
<polygon fill="black" stroke="black" points="216.28,-261.06 222.3,-252.34 212.15,-255.4 216.28,-261.06"/>
</g>
<!-- read&#45;plan -->
<g id="node8" class="node">
<title>read&#45;plan</title>
<ellipse fill="none" stroke="black" cx="69.08" cy="-234" rx="45.72" ry="18"/>
<text text-anchor="middle" x="69.08" y="-228.95" font-family="Times,serif" font-size="14.00">read&#45;plan</text>
</g>
<!-- params&#45;&gt;read&#45;plan -->
<g id="edge12" class="edge">
<title>params&#45;&gt;read&#45;plan</title>
<path fill="none" stroke="black" d="M132.5,-289.81C121.79,-280.56 107.9,-268.55 95.84,-258.13"/>
<polygon fill="black" stroke="black" points="98.46,-255.77 88.61,-251.88 93.88,-261.06 98.46,-255.77"/>
</g>
<!-- annotate&#45;plan&#45;&gt;render&#45;steps -->
<g id="edge7" class="edge">
<title>annotate&#45;plan&#45;&gt;render&#45;steps</title>
<path fill="none" stroke="black" d="M61.08,-143.7C61.08,-136.41 61.08,-127.73 61.08,-119.54"/>
<polygon fill="black" stroke="black" points="64.58,-119.62 61.08,-109.62 57.58,-119.62 64.58,-119.62"/>
</g>
<!-- annotate&#45;plan&#45;&gt;generate&#45;html -->
<g id="edge5" class="edge">
<title>annotate&#45;plan&#45;&gt;generate&#45;html</title>
<path fill="none" stroke="black" d="M90.8,-145.81C110.55,-135.72 136.71,-122.36 158.25,-111.35"/>
<polygon fill="black" stroke="black" points="159.75,-114.51 167.06,-106.85 156.56,-108.28 159.75,-114.51"/>
</g>
<!-- render&#45;objects&#45;&gt;generate&#45;html -->
<g id="edge6" class="edge">
<title>render&#45;objects&#45;&gt;generate&#45;html</title>
<path fill="none" stroke="black" d="M231.42,-144.05C226.4,-136.06 220.28,-126.33 214.67,-117.4"/>
<polygon fill="black" stroke="black" points="217.72,-115.67 209.43,-109.07 211.79,-119.4 217.72,-115.67"/>
</g>
<!-- read&#45;plan&#45;&gt;annotate&#45;plan -->
<g id="edge8" class="edge">
<title>read&#45;plan&#45;&gt;annotate&#45;plan</title>
<path fill="none" stroke="black" d="M67.1,-215.7C66.27,-208.41 65.27,-199.73 64.34,-191.54"/>
<polygon fill="black" stroke="black" points="67.82,-191.15 63.2,-181.61 60.86,-191.94 67.82,-191.15"/>
</g>
</g>
</svg>
