<?xml version="1.0" encoding="UTF-8" standalone="no"?>
<!DOCTYPE svg PUBLIC "-//W3C//DTD SVG 1.1//EN"
 "http://www.w3.org/Graphics/SVG/1.1/DTD/svg11.dtd">
<!-- Generated by graphviz version 9.0.0 (20230911.1827)
 -->
<!-- Pages: 1 -->
<svg width="467pt" height="404pt"
 viewBox="0.00 0.00 467.40 404.00" xmlns="http://www.w3.org/2000/svg" xmlns:xlink="http://www.w3.org/1999/xlink">
<g id="graph0" class="graph" transform="scale(1 1) rotate(0) translate(4 400)">
<polygon fill="white" stroke="none" points="-4,4 -4,-400 463.4,-400 463.4,4 -4,4"/>
<!-- web -->
<g id="node1" class="node">
<title>web</title>
<ellipse fill="none" stroke="black" cx="115.66" cy="-18" rx="27" ry="18"/>
<text text-anchor="middle" x="115.66" y="-12.95" font-family="Times,serif" font-size="14.00">web</text>
</g>
<!-- pops.geojson -->
<g id="node2" class="node">
<title>pops.geojson</title>
<ellipse fill="none" stroke="black" cx="63.66" cy="-90" rx="59.54" ry="18"/>
<text text-anchor="middle" x="63.66" y="-84.95" font-family="Times,serif" font-size="14.00">pops.geojson</text>
</g>
<!-- pops.geojson&#45;&gt;web -->
<g id="edge1" class="edge">
<title>pops.geojson&#45;&gt;web</title>
<path fill="none" stroke="black" d="M76.25,-72.05C82.65,-63.44 90.54,-52.81 97.58,-43.33"/>
<polygon fill="black" stroke="black" points="100.19,-45.69 103.35,-35.57 94.58,-41.51 100.19,-45.69"/>
</g>
<!-- mux -->
<g id="node3" class="node">
<title>mux</title>
<ellipse fill="none" stroke="black" cx="168.66" cy="-90" rx="27.81" ry="18"/>
<text text-anchor="middle" x="168.66" y="-84.95" font-family="Times,serif" font-size="14.00">mux</text>
</g>
<!-- mux&#45;&gt;web -->
<g id="edge2" class="edge">
<title>mux&#45;&gt;web</title>
<path fill="none" stroke="black" d="M156.9,-73.46C150.24,-64.67 141.77,-53.48 134.23,-43.53"/>
<polygon fill="black" stroke="black" points="137.13,-41.56 128.3,-35.7 131.55,-45.78 137.13,-41.56"/>
</g>
<!-- select&#45;buildings -->
<g id="node4" class="node">
<title>select&#45;buildings</title>
<ellipse fill="none" stroke="black" cx="124.66" cy="-162" rx="69.26" ry="18"/>
<text text-anchor="middle" x="124.66" y="-156.95" font-family="Times,serif" font-size="14.00">select&#45;buildings</text>
</g>
<!-- select&#45;buildings&#45;&gt;pops.geojson -->
<g id="edge3" class="edge">
<title>select&#45;buildings&#45;&gt;pops.geojson</title>
<path fill="none" stroke="black" d="M109.89,-144.05C102.62,-135.71 93.71,-125.49 85.66,-116.25"/>
<polygon fill="black" stroke="black" points="88.49,-114.17 79.28,-108.93 83.21,-118.77 88.49,-114.17"/>
</g>
<!-- pops.csv -->
<g id="node5" class="node">
<title>pops.csv</title>
<ellipse fill="none" stroke="black" cx="124.66" cy="-306" rx="43.16" ry="18"/>
<text text-anchor="middle" x="124.66" y="-300.95" font-family="Times,serif" font-size="14.00">pops.csv</text>
</g>
<!-- pops.csv&#45;&gt;pops.geojson -->
<g id="edge4" class="edge">
<title>pops.csv&#45;&gt;pops.geojson</title>
<path fill="none" stroke="black" d="M87.72,-296.27C64.65,-288.71 36.75,-275.2 22.66,-252 -3.26,-209.33 24.62,-150.76 45.39,-117.29"/>
<polygon fill="black" stroke="black" points="48.24,-119.33 50.72,-109.03 42.36,-115.54 48.24,-119.33"/>
</g>
<!-- building&#45;where&#45;clause -->
<g id="node6" class="node">
<title>building&#45;where&#45;clause</title>
<ellipse fill="none" stroke="black" cx="124.66" cy="-234" rx="93.32" ry="18"/>
<text text-anchor="middle" x="124.66" y="-228.95" font-family="Times,serif" font-size="14.00">building&#45;where&#45;clause</text>
</g>
<!-- pops.csv&#45;&gt;building&#45;where&#45;clause -->
<g id="edge7" class="edge">
<title>pops.csv&#45;&gt;building&#45;where&#45;clause</title>
<path fill="none" stroke="black" d="M124.66,-287.7C124.66,-280.41 124.66,-271.73 124.66,-263.54"/>
<polygon fill="black" stroke="black" points="128.16,-263.62 124.66,-253.62 121.16,-263.62 128.16,-263.62"/>
</g>
<!-- transpose -->
<g id="node9" class="node">
<title>transpose</title>
<ellipse fill="none" stroke="black" cx="412.66" cy="-234" rx="45.72" ry="18"/>
<text text-anchor="middle" x="412.66" y="-228.95" font-family="Times,serif" font-size="14.00">transpose</text>
</g>
<!-- pops.csv&#45;&gt;transpose -->
<g id="edge9" class="edge">
<title>pops.csv&#45;&gt;transpose</title>
<path fill="none" stroke="black" d="M162.81,-297.25C209.14,-287.63 289.54,-270.25 357.66,-252 360.78,-251.16 363.99,-250.27 367.22,-249.34"/>
<polygon fill="black" stroke="black" points="368.11,-252.73 376.7,-246.53 366.12,-246.01 368.11,-252.73"/>
</g>
<!-- building&#45;where&#45;clause&#45;&gt;select&#45;buildings -->
<g id="edge5" class="edge">
<title>building&#45;where&#45;clause&#45;&gt;select&#45;buildings</title>
<path fill="none" stroke="black" d="M124.66,-215.7C124.66,-208.41 124.66,-199.73 124.66,-191.54"/>
<polygon fill="black" stroke="black" points="128.16,-191.62 124.66,-181.62 121.16,-191.62 128.16,-191.62"/>
</g>
<!-- building.shz -->
<g id="node7" class="node">
<title>building.shz</title>
<ellipse fill="none" stroke="black" cx="292.66" cy="-234" rx="56.47" ry="18"/>
<text text-anchor="middle" x="292.66" y="-228.95" font-family="Times,serif" font-size="14.00">building.shz</text>
</g>
<!-- building.shz&#45;&gt;select&#45;buildings -->
<g id="edge6" class="edge">
<title>building.shz&#45;&gt;select&#45;buildings</title>
<path fill="none" stroke="black" d="M259.47,-219.17C234.03,-208.57 198.63,-193.82 170.49,-182.1"/>
<polygon fill="black" stroke="black" points="172.07,-178.97 161.5,-178.35 169.38,-185.43 172.07,-178.97"/>
</g>
<!-- plan&#45;mux -->
<g id="node8" class="node">
<title>plan&#45;mux</title>
<ellipse fill="none" stroke="black" cx="412.66" cy="-162" rx="46.75" ry="18"/>
<text text-anchor="middle" x="412.66" y="-156.95" font-family="Times,serif" font-size="14.00">plan&#45;mux</text>
</g>
<!-- transpose&#45;&gt;plan&#45;mux -->
<g id="edge8" class="edge">
<title>transpose&#45;&gt;plan&#45;mux</title>
<path fill="none" stroke="black" d="M412.66,-215.7C412.66,-208.41 412.66,-199.73 412.66,-191.54"/>
<polygon fill="black" stroke="black" points="416.16,-191.62 412.66,-181.62 409.16,-191.62 416.16,-191.62"/>
</g>
<!-- fetch&#45;pops.csv -->
<g id="node10" class="node">
<title>fetch&#45;pops.csv</title>
<ellipse fill="none" stroke="black" cx="64.66" cy="-378" rx="64.66" ry="18"/>
<text text-anchor="middle" x="64.66" y="-372.95" font-family="Times,serif" font-size="14.00">fetch&#45;pops.csv</text>
</g>
<!-- fetch&#45;pops.csv&#45;&gt;pops.csv -->
<g id="edge10" class="edge">
<title>fetch&#45;pops.csv&#45;&gt;pops.csv</title>
<path fill="none" stroke="black" d="M79.18,-360.05C86.44,-351.59 95.35,-341.19 103.36,-331.84"/>
<polygon fill="black" stroke="black" points="105.85,-334.33 109.7,-324.46 100.53,-329.77 105.85,-334.33"/>
</g>
<!-- params -->
<g id="node11" class="node">
<title>params</title>
<ellipse fill="none" stroke="black" cx="185.66" cy="-378" rx="38.04" ry="18"/>
<text text-anchor="middle" x="185.66" y="-372.95" font-family="Times,serif" font-size="14.00">params</text>
</g>
<!-- params&#45;&gt;pops.csv -->
<g id="edge11" class="edge">
<title>params&#45;&gt;pops.csv</title>
<path fill="none" stroke="black" d="M171.82,-361.12C164.28,-352.47 154.79,-341.58 146.3,-331.83"/>
<polygon fill="black" stroke="black" points="149.07,-329.69 139.86,-324.45 143.79,-334.29 149.07,-329.69"/>
</g>
</g>
</svg>
